<svg width="89" height="28" viewBox="0 0 89 28" fill="none" xmlns="http://www.w3.org/2000/svg">
<path d="M88.9994 24.2155C88.9994 26.3052 87.2384 28 85.0662 28H3.93439C1.7622 28 0 26.3058 0 24.2155V3.78389C0 1.69479 1.76161 0 3.93439 0H85.0668C87.239 0 89 1.69422 89 3.78389L88.9994 24.2155Z" fill="black"/>
<path d="M23.2079 18.5076C22.7368 19.5119 22.5113 19.9604 21.9049 20.8478C21.0582 22.0872 19.8656 23.6302 18.3877 23.6433C17.074 23.6547 16.737 22.821 14.954 22.8307C13.1711 22.8404 12.799 23.6582 11.4854 23.6468C10.0074 23.6336 8.87711 22.2401 8.03043 21.0013C5.66362 17.5358 5.4162 13.4694 6.8758 11.3073C7.91354 9.77115 9.54936 8.87126 11.0885 8.87126C12.6555 8.87126 13.6404 9.69754 14.9356 9.69754C16.1923 9.69754 16.9583 8.87012 18.7692 8.87012C20.1386 8.87012 21.5893 9.58684 22.6229 10.8274C19.2355 12.6118 19.7855 17.2642 23.2079 18.5076Z" fill="white"/>
<path d="M17.3934 7.48525C18.0514 6.67267 18.5515 5.52569 18.37 4.35303C17.2955 4.42436 16.0376 5.08173 15.303 5.9394C14.6367 6.71775 14.0867 7.87328 14.3009 8.99459C15.4745 9.02996 16.6885 8.35604 17.3934 7.48525Z" fill="white"/>
<path d="M30.4196 11.2544L27.0293 20.8531H28.5821L29.5943 17.9057H32.8772L33.9179 20.8531H35.5134L32.1082 11.2544H30.4196ZM31.2242 12.8328C31.3387 13.2613 31.4621 13.7064 31.6211 14.1869L32.5348 16.7319H29.9343L30.8355 14.1703C30.9726 13.7549 31.1031 13.3064 31.2242 12.8328Z" fill="white"/>
<path d="M39.9014 13.7432C38.8732 13.7432 38.0496 14.1249 37.5008 14.8508L37.4409 13.8961H36.0596L36.0679 14.0182C36.1082 14.6128 36.1254 15.2673 36.1254 16.2072V23.6055H37.6355V20.1531C38.1042 20.6924 38.8518 21.0062 39.6997 21.0062C40.582 21.0062 41.3948 20.6735 41.9876 20.071C42.6491 19.3987 42.998 18.4321 42.998 17.2777C42.998 16.2574 42.6948 15.3752 42.1211 14.7269C41.558 14.0924 40.7706 13.7432 39.9014 13.7432ZM39.5252 14.9455C40.8715 14.9455 41.4737 16.145 41.4737 17.333C41.4737 18.8658 40.7054 19.8176 39.4683 19.8176C38.6234 19.8176 37.893 19.2646 37.6895 18.4697C37.6545 18.3465 37.6355 18.1833 37.6355 18.0001V16.832C37.6355 16.7265 37.6598 16.5981 37.6835 16.4737C37.6912 16.4337 37.699 16.3943 37.7055 16.3555C37.9304 15.5253 38.6774 14.9455 39.5252 14.9455Z" fill="white"/>
<path d="M47.6772 13.7432C46.6489 13.7432 45.8254 14.1249 45.2766 14.8508L45.2166 13.8961H43.8359L43.8437 14.0182C43.8846 14.6134 43.9018 15.2673 43.9018 16.2072V23.6055H45.4118V20.1531C45.8806 20.6924 46.6282 21.0062 47.4754 21.0062C48.3577 21.0062 49.1712 20.6735 49.7645 20.071C50.4249 19.3987 50.7744 18.4321 50.7744 17.2777C50.7744 16.2574 50.4706 15.3752 49.8962 14.7269C49.3344 14.0924 48.5464 13.7432 47.6772 13.7432ZM47.3016 14.9455C48.6467 14.9455 49.2501 16.145 49.2501 17.333C49.2501 18.8658 48.4811 19.8176 47.2446 19.8176C46.4003 19.8176 45.6687 19.2646 45.4658 18.4697C45.4308 18.3465 45.4124 18.1833 45.4124 18.0001V16.832C45.4124 16.7253 45.4368 16.5969 45.4605 16.4725C45.4682 16.4337 45.4753 16.3943 45.4824 16.3555C45.7061 15.5253 46.4537 14.9455 47.3016 14.9455Z" fill="white"/>
<path d="M57.4182 15.3235C56.0091 14.7985 55.5576 14.3859 55.5576 13.623C55.5576 12.981 56.088 12.3333 57.2741 12.3333C58.2519 12.3333 58.8779 12.6603 59.0464 12.7613L59.1745 12.8372L59.6005 11.6252L59.5163 11.5778C59.2635 11.4351 58.542 11.103 57.3174 11.103C55.392 11.103 54.0463 12.1964 54.0463 13.7611C54.0463 15.0233 54.8883 15.9055 56.6968 16.5372C57.9784 16.9977 58.4554 17.4696 58.4554 18.2788C58.4554 19.1947 57.7191 19.7624 56.536 19.7624C55.7652 19.7624 54.9719 19.5462 54.3596 19.169L54.2285 19.0879L53.8232 20.3279L53.8974 20.3753C54.4676 20.7411 55.5404 21.0059 56.4493 21.0059C59.0446 21.0059 59.9648 19.484 59.9648 18.1806C59.9654 16.8385 59.2273 16.0099 57.4182 15.3235Z" fill="white"/>
<path d="M62.6831 12.2422L61.2022 12.6896V13.8959H60.1182V15.0566H61.2022V18.6116C61.2022 19.471 61.3731 20.0736 61.7249 20.4542C62.0619 20.8097 62.5811 21.006 63.1857 21.006C63.7565 21.006 64.1623 20.8976 64.3528 20.8326L64.4376 20.804L64.3652 19.6411L64.2205 19.6839C64.0294 19.7404 63.8336 19.7615 63.518 19.7615C62.9329 19.7615 62.6831 19.4054 62.6831 18.5694V15.056H64.5047V13.8953H62.6831V12.2422Z" fill="white"/>
<path d="M68.2471 13.7432C66.1342 13.7432 64.6592 15.2599 64.6592 17.43C64.6592 19.5357 66.0867 21.0062 68.1314 21.0062H68.145C69.8734 21.0062 71.7329 19.8478 71.7329 17.3051C71.7329 16.2711 71.4006 15.3832 70.7711 14.7366C70.138 14.0867 69.2646 13.7432 68.2471 13.7432ZM68.2032 14.8896C69.5619 14.8896 70.1801 16.1632 70.1801 17.3467C70.1801 18.803 69.3358 19.8592 68.1747 19.8592H68.1598C67.0147 19.8592 66.1829 18.8201 66.1829 17.389C66.1835 16.145 66.8082 14.8896 68.2032 14.8896Z" fill="white"/>
<path d="M76.3584 13.8111L76.2676 13.7888C76.1347 13.7569 76.0261 13.7432 75.892 13.7432C75.1023 13.7432 74.3933 14.1905 73.9993 14.9124L73.9548 13.8961H72.5996L72.6079 14.0182C72.6483 14.5928 72.6649 15.2382 72.6649 16.1096L72.6512 20.8544H74.1613V17.1533C74.1613 16.9519 74.1755 16.7613 74.2028 16.5901C74.3731 15.701 74.9967 15.127 75.7917 15.127C75.946 15.127 76.0682 15.1389 76.197 15.1515L76.3584 15.1675V13.8111Z" fill="white"/>
<path d="M79.7529 13.7314C77.7427 13.7314 76.3389 15.2762 76.3389 17.4879C76.3389 19.6181 77.7356 20.9945 79.8977 20.9945C81.0345 20.9945 81.8254 20.7543 82.2882 20.5534L82.379 20.514L82.0889 19.4321L81.9631 19.4806C81.5513 19.6415 81.0042 19.8059 80.0715 19.8059C79.4159 19.8059 77.9029 19.5976 77.8103 17.7002L82.6846 17.7145L82.7041 17.6215C82.735 17.4737 82.7492 17.2751 82.7492 17.0155C82.7481 15.5004 81.9637 13.7314 79.7529 13.7314ZM79.652 14.8362C80.1119 14.8362 80.4851 14.9732 80.7604 15.2431C81.1947 15.6682 81.2707 16.2947 81.2807 16.5949H77.837C77.9777 15.7561 78.5223 14.8362 79.652 14.8362Z" fill="white"/>
<path d="M27.0289 4.69816C27.4496 4.64452 27.9403 4.604 28.4772 4.604C29.4509 4.604 30.1439 4.79288 30.6032 5.16323C31.0778 5.53357 31.3508 6.06655 31.3508 6.80096C31.3508 7.54221 31.0778 8.1488 30.5954 8.56651C30.097 8.99106 29.2871 9.22045 28.2666 9.22045C27.7759 9.22045 27.379 9.20733 27.0283 9.16681L27.0289 4.69816ZM27.7142 8.72172C27.8857 8.74854 28.1349 8.74854 28.3995 8.74854C29.8478 8.75482 30.634 8.04723 30.634 6.82093C30.6423 5.73558 29.941 5.0685 28.5081 5.0685C28.158 5.0685 27.8928 5.09589 27.7136 5.12956L27.7142 8.72172Z" fill="white"/>
<path d="M33.7794 9.25493C32.7671 9.25493 31.9727 8.60783 31.9727 7.57669C31.9727 6.48506 32.8057 5.84424 33.8411 5.84424C34.9239 5.84424 35.6555 6.52501 35.6555 7.5162C35.6555 8.72938 34.6824 9.25493 33.7871 9.25493H33.7794ZM33.8025 8.81041C34.4569 8.81041 34.9476 8.278 34.9476 7.53618C34.9476 6.9838 34.6284 6.28933 33.8179 6.28933C33.0157 6.28933 32.6657 6.93644 32.6657 7.55672C32.6657 8.27116 33.1332 8.81041 33.7948 8.81041H33.8025Z" fill="white"/>
<path d="M36.7398 5.91943L37.2465 7.57086C37.3474 7.93492 37.4488 8.27845 37.5188 8.61569H37.542C37.6274 8.28529 37.752 7.93492 37.8766 7.5777L38.4919 5.91943H39.068L39.6525 7.55031C39.7919 7.93492 39.9017 8.28529 39.9871 8.61569H40.0102C40.0725 8.28529 40.174 7.94177 40.2986 7.55716L40.8356 5.91943H41.5132L40.298 9.18176H39.675L39.0989 7.6245C38.9666 7.25415 38.8574 6.9306 38.7637 6.54599H38.7488C38.6557 6.93688 38.5388 7.28097 38.4065 7.63134L37.7989 9.18176H37.1759L36.0391 5.91943H36.7398Z" fill="white"/>
<path d="M42.1994 6.8012C42.1994 6.45767 42.1911 6.18776 42.168 5.91785H42.7755L42.8141 6.45082H42.8295C43.0164 6.14725 43.4525 5.84424 44.0755 5.84424C44.5977 5.84424 45.407 6.11358 45.407 7.2326V9.18018H44.7223V7.29993C44.7223 6.77438 44.4962 6.32985 43.8495 6.32985C43.4057 6.32985 43.055 6.60604 42.9304 6.93644C42.8995 7.01062 42.8835 7.11847 42.8835 7.21263V9.18075H42.1982L42.1994 6.8012Z" fill="white"/>
<path d="M46.5215 4.396H47.2068V9.18135H46.5215V4.396Z" fill="white"/>
<path d="M49.878 9.25493C48.8658 9.25493 48.0713 8.60783 48.0713 7.57669C48.0713 6.48506 48.9043 5.84424 49.9403 5.84424C51.0225 5.84424 51.7547 6.52501 51.7547 7.5162C51.7547 8.72938 50.7816 9.25493 49.8857 9.25493H49.878ZM49.9011 8.81041C50.5556 8.81041 51.0463 8.278 51.0463 7.53618C51.0463 6.9838 50.7265 6.28933 49.9171 6.28933C49.115 6.28933 48.7643 6.93644 48.7643 7.55672C48.7643 8.27116 49.2318 8.81041 49.894 8.81041H49.9011Z" fill="white"/>
<path d="M55.2749 8.39955C55.2749 8.68259 55.2903 8.95877 55.3295 9.18132H54.7142L54.6519 8.77046H54.6287C54.4264 9.02611 54.0134 9.2555 53.4765 9.2555C52.7134 9.2555 52.3242 8.79101 52.3242 8.31852C52.3242 7.5299 53.1335 7.0985 54.5896 7.10535V7.03801C54.5896 6.76867 54.5041 6.27678 53.7334 6.28306C53.375 6.28306 53.0095 6.37037 52.7443 6.52501L52.5883 6.12727C52.8998 5.95894 53.359 5.84424 53.8343 5.84424C54.9942 5.84424 55.2749 6.52444 55.2749 7.17839V8.39955ZM54.605 7.51678C53.8574 7.50365 53.0083 7.61778 53.0083 8.25175C53.0083 8.64264 53.3044 8.81783 53.6468 8.81783C54.1452 8.81783 54.4644 8.54849 54.5735 8.27173C54.5973 8.21124 54.605 8.1439 54.605 8.08285V7.51678Z" fill="white"/>
<path d="M59.628 4.396V8.3391C59.628 8.62898 59.6363 8.95938 59.6595 9.18192H59.0442L59.0127 8.61585H58.9973C58.7873 8.97935 58.3351 9.25611 57.7205 9.25611C56.8091 9.25611 56.1007 8.58903 56.1007 7.59784C56.0923 6.50621 56.8797 5.84598 57.7905 5.84598C58.3749 5.84598 58.7641 6.08223 58.9279 6.33787H58.9427V4.39657L59.628 4.396ZM58.9427 7.24633C58.9427 7.1653 58.935 7.07114 58.9113 6.99068C58.8104 6.62034 58.4366 6.30991 57.9222 6.30991C57.2132 6.30991 56.7931 6.84916 56.7931 7.5636C56.7931 8.23067 57.1752 8.7762 57.9068 8.7762C58.3666 8.7762 58.7867 8.50629 58.9113 8.06861C58.935 7.98758 58.9427 7.90655 58.9427 7.81297V7.24633Z" fill="white"/>
<path d="M63.9503 9.25493C62.938 9.25493 62.1436 8.60783 62.1436 7.57669C62.1436 6.48506 62.9772 5.84424 64.0126 5.84424C65.0954 5.84424 65.8276 6.52501 65.8276 7.5162C65.8276 8.72938 64.8539 9.25493 63.9592 9.25493H63.9503ZM63.974 8.81041C64.6284 8.81041 65.1185 8.278 65.1185 7.53618C65.1185 6.9838 64.7993 6.28933 63.9894 6.28933C63.1872 6.28933 62.8372 6.93644 62.8372 7.55672C62.8372 8.27116 63.3041 8.81041 63.9663 8.81041H63.974Z" fill="white"/>
<path d="M66.6926 6.8012C66.6926 6.45767 66.6843 6.18776 66.6611 5.91785H67.2687L67.3079 6.45082H67.3227C67.5096 6.14725 67.9451 5.84424 68.5687 5.84424C69.0908 5.84424 69.9007 6.11358 69.9007 7.2326V9.18018H69.2154V7.29993C69.2154 6.77438 68.99 6.32985 68.3432 6.32985C67.8994 6.32985 67.5488 6.60604 67.4242 6.93644C67.3927 7.01062 67.3773 7.11847 67.3773 7.21263V9.18075H66.6926V6.8012Z" fill="white"/>
<path d="M73.4897 5.13721V5.91898H74.4704V6.37035H73.4897V8.12963C73.4897 8.53421 73.622 8.76303 74.0035 8.76303C74.1898 8.76303 74.2996 8.74991 74.4004 8.72252L74.4319 9.17389C74.2996 9.21441 74.0895 9.25492 73.8243 9.25492C73.5051 9.25492 73.2482 9.1602 73.0844 9.00555C72.8975 8.82352 72.8198 8.53364 72.8198 8.14903V6.36921H72.2354V5.91784H72.8198V5.31867L73.4897 5.13721Z" fill="white"/>
<path d="M75.2432 4.396H75.9279V6.43146H75.9439C76.0525 6.26312 76.2239 6.10791 76.4346 6.01375C76.6369 5.9059 76.8778 5.84541 77.1353 5.84541C77.6414 5.84541 78.4513 6.11475 78.4513 7.24062V9.18135H77.7666V7.30738C77.7666 6.77498 77.5405 6.33673 76.8944 6.33673C76.4506 6.33673 76.1082 6.60607 75.9753 6.93019C75.9362 7.01122 75.9285 7.09853 75.9285 7.2138V9.18135H75.2438L75.2432 4.396Z" fill="white"/>
<path d="M79.9539 7.65015C79.97 8.45247 80.5538 8.78286 81.2391 8.78286C81.7298 8.78286 82.0336 8.70811 82.2834 8.62137L82.408 9.03908C82.1659 9.13381 81.7458 9.2485 81.1465 9.2485C79.9937 9.2485 79.293 8.58086 79.293 7.60393C79.293 6.6133 79.9706 5.83838 81.0682 5.83838C82.2994 5.83838 82.6174 6.77536 82.6174 7.3751C82.6174 7.49608 82.6103 7.5908 82.5943 7.65814L79.9539 7.65015ZM81.9564 7.2256C81.9636 6.85525 81.7773 6.26179 81.0136 6.26179C80.3129 6.26179 80.0168 6.81474 79.9628 7.2256H81.9564Z" fill="white"/>
</svg>
