<svg width="89" height="29" viewBox="0 0 89 29" fill="none" xmlns="http://www.w3.org/2000/svg">
<path d="M88.0255 25.0803C88.0255 27.2446 86.2832 29 84.1354 29H3.89134C1.74292 29 0 27.2452 0 25.0803V3.91911C0 1.75476 1.74233 0 3.89134 0H84.1359C86.285 0 88.0261 1.75476 88.0261 3.91911L88.0255 25.0803Z" fill="#1D1D1B"/>
<mask id="mask0_373_5659" style="mask-type:luminance" maskUnits="userSpaceOnUse" x="6" y="5" width="18" height="20">
<path d="M19.0764 12.7611L15.107 10.4531C15.107 10.4531 7.87598 6.24851 7.45111 6.00087C7.02565 5.75323 6.60254 5.90335 6.60254 6.41991C6.60254 7.28045 6.60254 15.3982 6.60254 15.3982C6.60254 15.3982 6.60254 24.1715 6.60254 24.5592C6.60254 24.9463 6.90535 25.1136 7.27447 24.8984C7.64359 24.6833 15.107 20.3434 15.107 20.3434L19.0758 18.036C19.0758 18.036 22.4431 16.0779 22.8915 15.8179C23.3392 15.5572 23.2958 15.2002 22.9185 14.9957C22.5411 14.7901 19.0764 12.7611 19.0764 12.7611Z" fill="white"/>
</mask>
<g mask="url(#mask0_373_5659)">
<path d="M6.60352 5.57764V15.397V25.2163L16.436 15.3976L6.60352 5.57764Z" fill="url(#paint0_linear_373_5659)"/>
</g>
<mask id="mask1_373_5659" style="mask-type:luminance" maskUnits="userSpaceOnUse" x="6" y="5" width="18" height="20">
<path d="M19.0764 12.7611L15.107 10.4531C15.107 10.4531 7.87598 6.24851 7.45111 6.00087C7.02565 5.75323 6.60254 5.90335 6.60254 6.41991C6.60254 7.28045 6.60254 15.3982 6.60254 15.3982C6.60254 15.3982 6.60254 24.1715 6.60254 24.5592C6.60254 24.9463 6.90535 25.1136 7.27447 24.8984C7.64359 24.6833 15.107 20.3434 15.107 20.3434L19.0758 18.036C19.0758 18.036 22.4431 16.0779 22.8915 15.8179C23.3392 15.5572 23.2958 15.2002 22.9185 14.9957C22.5411 14.7901 19.0764 12.7611 19.0764 12.7611Z" fill="white"/>
</mask>
<g mask="url(#mask1_373_5659)">
<path d="M19.0768 12.7605L15.108 10.4526L6.60352 5.50684V5.57835L16.436 15.3983L19.0768 12.7605Z" fill="url(#paint1_linear_373_5659)"/>
</g>
<mask id="mask2_373_5659" style="mask-type:luminance" maskUnits="userSpaceOnUse" x="6" y="5" width="18" height="20">
<path d="M19.0764 12.7611L15.107 10.4531C15.107 10.4531 7.87598 6.24851 7.45111 6.00087C7.02565 5.75323 6.60254 5.90335 6.60254 6.41991C6.60254 7.28045 6.60254 15.3982 6.60254 15.3982C6.60254 15.3982 6.60254 24.1715 6.60254 24.5592C6.60254 24.9463 6.90535 25.1136 7.27447 24.8984C7.64359 24.6833 15.107 20.3434 15.107 20.3434L19.0758 18.036C19.0758 18.036 22.4431 16.0779 22.8915 15.8179C23.3392 15.5572 23.2958 15.2002 22.9185 14.9957C22.5411 14.7901 19.0764 12.7611 19.0764 12.7611Z" fill="white"/>
</mask>
<g mask="url(#mask2_373_5659)">
<path d="M6.60352 25.2201V25.2916L15.108 20.3459L19.0768 18.0379L16.436 15.4014L6.60352 25.2201Z" fill="url(#paint2_linear_373_5659)"/>
</g>
<mask id="mask3_373_5659" style="mask-type:luminance" maskUnits="userSpaceOnUse" x="6" y="5" width="18" height="20">
<path d="M19.0764 12.7611L15.107 10.4531C15.107 10.4531 7.87598 6.24851 7.45111 6.00087C7.02565 5.75323 6.60254 5.90335 6.60254 6.41991C6.60254 7.28045 6.60254 15.3982 6.60254 15.3982C6.60254 15.3982 6.60254 24.1715 6.60254 24.5592C6.60254 24.9463 6.90535 25.1136 7.27447 24.8984C7.64359 24.6833 15.107 20.3434 15.107 20.3434L19.0758 18.036C19.0758 18.036 22.4431 16.0779 22.8915 15.8179C23.3392 15.5572 23.2958 15.2002 22.9185 14.9957C22.5411 14.7901 19.0764 12.7611 19.0764 12.7611Z" fill="white"/>
</mask>
<g mask="url(#mask3_373_5659)">
<path d="M19.0763 12.7632L16.4355 15.4009L19.0763 18.0375L23.6126 15.4004L19.0763 12.7632Z" fill="url(#paint3_linear_373_5659)"/>
</g>
<path d="M68.5056 19.2399C68.1365 19.2399 67.7991 19.1714 67.4939 19.0342C67.1888 18.8965 66.9323 18.6855 66.7252 18.4012H66.6629C66.704 18.7346 66.7252 19.0514 66.7252 19.3493V21.6992H65.8672V13.4242H66.5655L66.6841 14.2055H66.7252C66.9464 13.8923 67.2028 13.6671 67.4963 13.5282C67.7891 13.3887 68.1253 13.3196 68.505 13.3196C69.2574 13.3196 69.8378 13.5785 70.2462 14.0962C70.6552 14.6139 70.8594 15.3397 70.8594 16.2747C70.8594 17.2127 70.6517 17.9414 70.2362 18.4609C69.8207 18.9799 69.2439 19.2399 68.5056 19.2399ZM68.3812 14.0548C67.8014 14.0548 67.3824 14.2168 67.1242 14.5395C66.8654 14.8628 66.7328 15.377 66.7252 16.082V16.2747C66.7252 17.0773 66.8584 17.6512 67.1242 17.9976C67.39 18.3433 67.8161 18.5159 68.4018 18.5159C68.8918 18.5159 69.2761 18.3161 69.5537 17.9172C69.8313 17.5177 69.9704 16.9674 69.9704 16.2653C69.9704 15.5537 69.8319 15.007 69.5537 14.6263C69.2756 14.2451 68.8847 14.0548 68.3812 14.0548Z" fill="#F9F9F9"/>
<path d="M72.8488 19.1372H71.9902V11.0283H72.8488V19.1372Z" fill="#F9F9F9"/>
<path d="M77.7863 19.1363L77.6155 18.3237H77.5744C77.2916 18.6818 77.0099 18.9241 76.7288 19.0506C76.4477 19.1777 76.0968 19.2409 75.676 19.2409C75.1138 19.2409 74.6731 19.0949 74.3539 18.8036C74.0346 18.5122 73.875 18.0973 73.875 17.5583C73.875 16.4046 74.7911 15.8006 76.6226 15.745L77.585 15.7137V15.3596C77.585 14.9116 77.4888 14.5801 77.2975 14.3673C77.1061 14.1534 76.7998 14.047 76.3796 14.047C75.9072 14.047 75.372 14.193 74.7758 14.4843L74.5117 13.8224C74.7911 13.6693 75.0968 13.5499 75.4301 13.463C75.7629 13.3762 76.0962 13.333 76.4313 13.333C77.1073 13.333 77.6079 13.4843 77.9342 13.7863C78.2599 14.0889 78.423 14.573 78.423 15.2403V19.1381L77.7863 19.1363ZM75.8462 18.527C76.3808 18.527 76.8004 18.3792 77.1056 18.0843C77.4107 17.7888 77.5639 17.3756 77.5639 16.8437V16.3278L76.7048 16.3644C76.0223 16.3892 75.5293 16.4956 75.2277 16.6853C74.926 16.8745 74.7752 17.1688 74.7752 17.5689C74.7752 17.8816 74.8691 18.1192 75.0575 18.2829C75.2447 18.4448 75.5076 18.527 75.8462 18.527Z" fill="#F9F9F9"/>
<path d="M78.9209 13.4258H79.8417L81.084 16.6829C81.3563 17.427 81.5259 17.9631 81.5916 18.2935H81.6327C81.6773 18.1156 81.7718 17.813 81.9144 17.3839C82.0576 16.9548 82.5259 15.6362 83.3193 13.4264H84.2406L81.8035 19.9295C81.5623 20.5719 81.28 21.0282 80.9572 21.2977C80.6351 21.5666 80.2389 21.7008 79.7701 21.7008C79.5077 21.7008 79.2489 21.6718 78.9937 21.6127V20.92C79.1832 20.9614 79.3957 20.9827 79.6298 20.9827C80.2196 20.9827 80.6403 20.6493 80.8927 19.9821L81.2084 19.1694L78.9209 13.4258Z" fill="#F9F9F9"/>
<path d="M52.5955 13.9595C52.8678 14.1864 53.4376 14.6646 53.4376 15.5724C53.4376 16.456 52.9394 16.875 52.4411 17.2686C52.2868 17.4235 52.109 17.5919 52.109 17.8543C52.109 18.1162 52.2868 18.2598 52.4177 18.3674L52.8449 18.7013C53.3672 19.1434 53.8408 19.55 53.8408 20.3745C53.8408 21.4974 52.761 22.6316 50.7217 22.6316C49.0017 22.6316 48.1719 21.8077 48.1719 20.9236C48.1719 20.4933 48.3843 19.8851 49.085 19.4661C49.8197 19.0122 50.8168 18.9531 51.3502 18.9164C51.1835 18.7013 50.994 18.4743 50.994 18.1049C50.994 17.9022 51.0533 17.7828 51.1131 17.6386C50.9823 17.6504 50.852 17.6628 50.7334 17.6628C49.4764 17.6628 48.7646 16.719 48.7646 15.7875C48.7646 15.2379 49.014 14.6285 49.5234 14.187C50.2 13.6255 51.0063 13.5298 51.6471 13.5298H54.0896L53.3302 13.9601L52.5955 13.9595ZM51.7534 19.2639C51.6589 19.2515 51.599 19.2515 51.4811 19.2515C51.3743 19.2515 50.7328 19.2758 50.2352 19.4436C49.9741 19.5382 49.2147 19.8254 49.2147 20.6735C49.2147 21.5211 50.0333 22.1316 51.3027 22.1316C52.4406 22.1316 53.0462 21.5814 53.0462 20.8408C53.0468 20.2303 52.6548 19.9088 51.7534 19.2639ZM52.0973 16.9938C52.3695 16.7184 52.393 16.3372 52.393 16.1214C52.393 15.2615 51.8831 13.924 50.8989 13.924C50.5902 13.924 50.2587 14.0789 50.0685 14.3182C49.8673 14.5688 49.8074 14.8915 49.8074 15.2018C49.8074 16.0021 50.2698 17.3283 51.2903 17.3283C51.5873 17.3283 51.9065 17.1847 52.0973 16.9938Z" fill="#F9F9F9"/>
<path d="M45.1289 19.0727C43.2463 19.0727 42.2393 17.5934 42.2393 16.2577C42.2393 14.695 43.5062 13.3599 45.3073 13.3599C47.0472 13.3599 48.137 14.731 48.137 16.1743C48.1364 17.5816 47.0596 19.0727 45.1289 19.0727ZM46.6089 18.1064C46.8935 17.7246 46.9645 17.2476 46.9645 16.7819C46.9645 15.7323 46.4674 13.7287 44.9986 13.7287C44.6083 13.7287 44.2175 13.8841 43.9329 14.1347C43.471 14.5514 43.3877 15.0768 43.3877 15.5898C43.3877 16.7695 43.9681 18.7134 45.4012 18.7134C45.863 18.714 46.3366 18.4876 46.6089 18.1064Z" fill="#F9F9F9"/>
<path d="M38.7109 19.0727C36.8277 19.0727 35.8213 17.5934 35.8213 16.2577C35.8213 14.695 37.0889 13.3599 38.8887 13.3599C40.6293 13.3599 41.7184 14.731 41.7184 16.1743C41.7184 17.5816 40.641 19.0727 38.7109 19.0727ZM40.1909 18.1064C40.4755 17.7246 40.5465 17.2476 40.5465 16.7819C40.5465 15.7323 40.0489 13.7287 38.5806 13.7287C38.1904 13.7287 37.7989 13.8841 37.5149 14.1347C37.0531 14.5514 36.9703 15.0768 36.9703 15.5898C36.9703 16.7695 37.5501 18.7134 38.9838 18.7134C39.445 18.714 39.9186 18.4876 40.1909 18.1064Z" fill="#F9F9F9"/>
<path d="M34.9158 18.885L33.2127 19.281C32.522 19.3892 31.9029 19.4843 31.2486 19.4843C27.9623 19.4843 26.7129 17.0499 26.7129 15.1432C26.7129 12.8175 28.4863 10.6597 31.5232 10.6597C32.1664 10.6597 32.7849 10.7554 33.3448 10.9114C34.2379 11.1632 34.654 11.4747 34.9163 11.655L33.9275 12.6024L33.5109 12.6975L33.8084 12.2176C33.404 11.8222 32.6646 11.0911 31.2603 11.0911C29.3789 11.0911 27.9617 12.5303 27.9617 14.629C27.9617 16.8826 29.5808 19.005 32.1758 19.005C32.9387 19.005 33.3307 18.8496 33.6881 18.7047V16.775L31.8906 16.8708L32.8424 16.3548H35.3664L35.0572 16.6545C34.9733 16.7266 34.9615 16.7508 34.9381 16.846C34.9257 16.9541 34.9146 17.3022 34.9146 17.4216L34.9158 18.885Z" fill="#F9F9F9"/>
<path d="M56.3588 18.5403C55.9656 18.5042 55.8834 18.4327 55.8834 17.9646V17.8322V11.1772C55.8858 11.1518 55.8875 11.1246 55.8899 11.0998C55.938 10.6808 56.0566 10.6081 56.4263 10.3923H54.7233L53.8301 10.8238H54.7403V10.8291L54.7391 10.825V17.8322V18.2288C54.7391 18.4681 54.6922 18.5048 54.4181 18.8641H56.5254L56.9662 18.6011C56.7637 18.5757 56.5612 18.5639 56.3588 18.5403Z" fill="#F9F9F9"/>
<path d="M61.2037 18.6516C61.074 18.7237 60.9443 18.807 60.8146 18.8661C60.4238 19.0446 60.0218 19.0925 59.6668 19.0925C59.2888 19.0925 58.6979 19.0683 58.094 18.628C57.2549 18.0322 56.8887 17.008 56.8887 16.1149C56.8887 14.2697 58.3787 13.3643 59.5964 13.3643C60.0218 13.3643 60.4602 13.4712 60.8146 13.6982C61.4056 14.0906 61.5588 14.6025 61.6415 14.8761L58.864 16.0079L57.9532 16.0794C58.2484 17.5919 59.2654 18.4725 60.3886 18.4725C60.9913 18.4725 61.4291 18.2586 61.831 18.0564L61.2037 18.6516ZM60.0928 15.1025C60.317 15.0197 60.435 14.9476 60.435 14.781C60.435 14.3046 59.9033 13.7567 59.2642 13.7567C58.7906 13.7567 57.9045 14.1261 57.9045 15.4122C57.9045 15.6149 57.928 15.8288 57.9409 16.044L60.0928 15.1025Z" fill="#F9F9F9"/>
<path d="M62.3449 13.4458V14.2319H62.2504V13.4458H61.9922V13.3643H62.6031V13.4458H62.3449Z" fill="#F9F9F9"/>
<path d="M63.408 14.2313V13.4381H63.4039L63.1633 14.2313H63.0894L62.847 13.4381H62.8441V14.2313H62.7578V13.3643H62.9051L63.1246 14.0652H63.1275L63.3435 13.3643H63.4931V14.2313H63.408Z" fill="#F9F9F9"/>
<path d="M29.0769 8.3243H28.4853C28.4853 8.24215 28.429 8.01047 28.3169 7.62807H27.4625C27.3468 8.00396 27.2887 8.23624 27.2887 8.3243H26.7324C26.7324 8.27584 26.8762 7.87867 27.1643 7.13279C27.4519 6.38691 27.5963 5.97555 27.5963 5.8999H28.2952C28.2952 5.97083 28.4255 6.37568 28.686 7.11506C28.9466 7.85384 29.0769 8.25751 29.0769 8.3243ZM28.223 7.27227C28.0123 6.63159 27.9067 6.28525 27.9067 6.23324H27.8768C27.8768 6.28171 27.7676 6.62746 27.5499 7.27227H28.223Z" fill="#FCFCFC"/>
<path d="M31.4611 8.3243H31.0045C31.0045 8.27347 30.8349 8.00455 30.4963 7.51814C30.1418 7.00513 29.9388 6.65524 29.8895 6.46611H29.8602C29.8913 6.73798 29.9065 6.98385 29.9065 7.20312C29.9065 7.50986 29.9147 7.88339 29.9323 8.3243H29.4775C29.4957 7.93954 29.5051 7.51696 29.5051 7.05595C29.5051 6.60323 29.4957 6.21728 29.4775 5.8999H30.0268C30.0268 5.9661 30.1788 6.22851 30.4834 6.68774C30.8073 7.17534 30.9934 7.50632 31.0421 7.68008H31.0696C31.0403 7.40348 31.025 7.15466 31.025 6.93538C31.025 6.59909 31.0162 6.25393 30.9992 5.90049H31.4616C31.4446 6.20842 31.4358 6.59377 31.4358 7.05654C31.4352 7.52287 31.444 7.94604 31.4611 8.3243Z" fill="#FCFCFC"/>
<path d="M34.1412 7.0274C34.1412 7.37966 34.0291 7.68817 33.805 7.95059C33.5808 8.2136 33.2662 8.3454 32.8625 8.3454C32.68 8.3454 32.4288 8.33771 32.1084 8.32294C32.1242 7.94764 32.1325 7.52564 32.1325 7.05459C32.1325 6.60305 32.1248 6.2171 32.1084 5.89854H32.4317C32.4846 5.89854 32.5638 5.89677 32.6688 5.89263C32.7733 5.88908 32.8419 5.88672 32.8742 5.88672C33.3191 5.88672 33.6418 5.99842 33.8419 6.22183C34.0409 6.44701 34.1412 6.71475 34.1412 7.0274ZM33.6359 7.10778C33.6359 6.8696 33.5667 6.66865 33.4288 6.50553C33.2903 6.3424 33.0796 6.26084 32.7962 6.26084C32.7434 6.26084 32.67 6.26675 32.5779 6.27798C32.5902 6.52621 32.5967 6.78567 32.5967 7.05636C32.5967 7.35306 32.6025 7.64739 32.6154 7.93877C32.6952 7.95473 32.7756 7.963 32.8554 7.963C33.1201 7.963 33.3167 7.88026 33.4446 7.71418C33.5726 7.54751 33.6359 7.34597 33.6359 7.10778Z" fill="#FCFCFC"/>
<path d="M36.6104 8.32353H36.0635C35.9203 7.88439 35.8111 7.61311 35.7343 7.50968C35.6574 7.40625 35.5347 7.35483 35.3646 7.35483C35.293 7.35483 35.2243 7.35602 35.1592 7.35661C35.1592 7.67576 35.165 7.99728 35.1762 8.32294H34.6621C34.678 7.94764 34.6862 7.52564 34.6862 7.05459C34.6862 6.60305 34.6785 6.2171 34.6621 5.89854H34.9819C35.0189 5.89854 35.0964 5.89677 35.2137 5.89263C35.3311 5.88908 35.4403 5.88672 35.54 5.88672C36.1057 5.88672 36.3886 6.08176 36.3886 6.47125C36.3886 6.78035 36.2272 6.99549 35.9039 7.11783V7.14561C36.0283 7.17989 36.1374 7.278 36.2307 7.43876C36.3252 7.6007 36.452 7.89562 36.6104 8.32353ZM35.9174 6.61073C35.9174 6.36368 35.7595 6.24015 35.4444 6.24015C35.3288 6.24015 35.2261 6.24843 35.1374 6.26616C35.1509 6.45824 35.158 6.70943 35.158 7.01854C35.2261 7.02149 35.283 7.02208 35.3299 7.02208C35.7214 7.02208 35.9174 6.88497 35.9174 6.61073Z" fill="#FCFCFC"/>
<path d="M39.2616 7.06756C39.2616 7.44878 39.146 7.76439 38.9136 8.01557C38.6818 8.26676 38.3955 8.39147 38.0539 8.39147C37.7288 8.39147 37.4559 8.27622 37.2364 8.04631C37.017 7.8164 36.9072 7.52325 36.9072 7.16863C36.9072 6.78742 37.0228 6.47122 37.2546 6.22062C37.4864 5.97002 37.7728 5.84473 38.1144 5.84473C38.4395 5.84473 38.7123 5.95939 38.9318 6.1893C39.1519 6.41802 39.2616 6.71117 39.2616 7.06756ZM38.7517 7.12135C38.7517 6.86189 38.6854 6.65148 38.5539 6.49013C38.4219 6.32878 38.2593 6.24781 38.0656 6.24781C37.8855 6.24781 37.7329 6.32878 37.6073 6.4919C37.4812 6.65444 37.419 6.85952 37.419 7.10775C37.419 7.36603 37.4853 7.57585 37.6179 7.73779C37.7505 7.89973 37.9131 7.9807 38.105 7.9807C38.2851 7.9807 38.4377 7.89914 38.5639 7.73543C38.6889 7.57289 38.7517 7.3684 38.7517 7.12135Z" fill="#FCFCFC"/>
<path d="M40.3067 8.3243H39.7832C39.799 7.93954 39.8073 7.51696 39.8073 7.05595C39.8073 6.60323 39.799 6.21728 39.7832 5.8999H40.3067C40.2908 6.21256 40.2826 6.59791 40.2826 7.05595C40.2826 7.52405 40.2902 7.94722 40.3067 8.3243Z" fill="#FCFCFC"/>
<path d="M42.9859 7.0274C42.9859 7.37966 42.8739 7.68817 42.6497 7.95059C42.4255 8.2136 42.111 8.3454 41.7072 8.3454C41.5247 8.3454 41.273 8.33771 40.9531 8.32294C40.969 7.94764 40.9772 7.52564 40.9772 7.05459C40.9772 6.60305 40.9696 6.2171 40.9531 5.89854H41.2765C41.3293 5.89854 41.4085 5.89677 41.5136 5.89263C41.618 5.88908 41.6867 5.88672 41.719 5.88672C42.1638 5.88672 42.4865 5.99842 42.6866 6.22183C42.8856 6.44701 42.9859 6.71475 42.9859 7.0274ZM42.4813 7.10778C42.4813 6.8696 42.412 6.66865 42.2741 6.50553C42.1356 6.3424 41.9249 6.26084 41.6415 6.26084C41.5887 6.26084 41.5153 6.26675 41.4232 6.27798C41.4355 6.52621 41.4414 6.78567 41.4414 7.05636C41.4414 7.35306 41.4478 7.64739 41.4602 7.93877C41.54 7.95473 41.6204 7.963 41.7008 7.963C41.9654 7.963 42.162 7.88026 42.2894 7.71418C42.4173 7.54751 42.4813 7.34597 42.4813 7.10778Z" fill="#FCFCFC"/>
<path d="M46.5417 8.3243H45.9502C45.9502 8.24215 45.8938 8.01047 45.7817 7.62807H44.9273C44.8117 8.00396 44.7536 8.23624 44.7536 8.3243H44.1973C44.1973 8.27584 44.341 7.87867 44.6292 7.13279C44.9173 6.38691 45.0611 5.97555 45.0611 5.8999H45.76C45.76 5.97083 45.8903 6.37568 46.1514 7.11506C46.4108 7.85384 46.5417 8.25751 46.5417 8.3243ZM45.6873 7.27227C45.4766 6.63159 45.3709 6.28525 45.3709 6.23324H45.3416C45.3416 6.28171 45.233 6.62746 45.0147 7.27227H45.6873Z" fill="#FCFCFC"/>
<path d="M48.6972 6.53389C48.6972 6.83059 48.5875 7.04986 48.3686 7.19112C48.1497 7.33237 47.8815 7.4033 47.5635 7.4033C47.5054 7.4033 47.4643 7.40212 47.4396 7.39975C47.4396 7.63321 47.4461 7.94113 47.4602 8.32294H46.9414C46.9573 7.96418 46.9655 7.5416 46.9655 7.05459C46.9655 6.60777 46.9578 6.22183 46.9414 5.89854H47.263C47.3088 5.89854 47.3962 5.89677 47.5253 5.89263C47.6544 5.88908 47.7671 5.88672 47.8616 5.88672C48.0957 5.88672 48.2935 5.93991 48.4549 6.04689C48.6168 6.15505 48.6972 6.31699 48.6972 6.53389ZM48.2201 6.63673C48.2201 6.37136 48.0447 6.23838 47.6949 6.23838C47.6075 6.23838 47.5148 6.24784 47.4173 6.26616C47.4308 6.5008 47.4379 6.76617 47.4379 7.06287C47.4684 7.06582 47.5042 7.06641 47.5453 7.06641C47.996 7.067 48.2201 6.92338 48.2201 6.63673Z" fill="#FCFCFC"/>
<path d="M50.915 6.53389C50.915 6.83059 50.8053 7.04986 50.587 7.19112C50.3681 7.33237 50.0999 7.4033 49.7818 7.4033C49.7237 7.4033 49.6826 7.40212 49.658 7.39975C49.658 7.63321 49.6645 7.94113 49.6785 8.32294H49.1592C49.175 7.96418 49.1832 7.5416 49.1832 7.05459C49.1832 6.60777 49.1756 6.22183 49.1592 5.89854H49.4808C49.5265 5.89854 49.614 5.89677 49.7431 5.89263C49.8728 5.88908 49.9849 5.88672 50.0793 5.88672C50.3135 5.88672 50.5113 5.93991 50.6726 6.04689C50.834 6.15505 50.915 6.31699 50.915 6.53389ZM50.4379 6.63673C50.4379 6.37136 50.2624 6.23838 49.9127 6.23838C49.8252 6.23838 49.7325 6.24784 49.6351 6.26616C49.6486 6.5008 49.6556 6.76617 49.6556 7.06287C49.6867 7.06582 49.722 7.06641 49.763 7.06641C50.2126 7.067 50.4379 6.92338 50.4379 6.63673Z" fill="#FCFCFC"/>
<path d="M54.5394 7.06756C54.5394 7.44878 54.4238 7.76439 54.192 8.01557C53.9602 8.26676 53.6738 8.39147 53.3322 8.39147C53.0071 8.39147 52.7342 8.27622 52.5148 8.04631C52.2953 7.8164 52.1855 7.52325 52.1855 7.16863C52.1855 6.78742 52.3012 6.47122 52.533 6.22062C52.7648 5.97002 53.0511 5.84473 53.3927 5.84473C53.7178 5.84473 53.9907 5.95939 54.2101 6.1893C54.4296 6.41802 54.5394 6.71117 54.5394 7.06756ZM54.0288 7.12135C54.0288 6.86189 53.9631 6.65148 53.831 6.49013C53.699 6.32878 53.5365 6.24781 53.3428 6.24781C53.1626 6.24781 53.0101 6.32878 52.8839 6.4919C52.7583 6.65444 52.6955 6.85952 52.6955 7.10775C52.6955 7.36603 52.7612 7.57585 52.8945 7.73779C53.0271 7.89973 53.189 7.9807 53.3815 7.9807C53.5617 7.9807 53.7143 7.89914 53.8404 7.73543C53.9666 7.57289 54.0288 7.3684 54.0288 7.12135Z" fill="#FCFCFC"/>
<path d="M57.046 8.3243H56.5895C56.5895 8.27347 56.4199 8.00455 56.0813 7.51814C55.7268 7.00513 55.5238 6.65524 55.4745 6.46611H55.4451C55.4762 6.73798 55.4915 6.98385 55.4915 7.20312C55.4915 7.50986 55.4997 7.88339 55.5173 8.3243H55.0625C55.0813 7.93954 55.0901 7.51696 55.0901 7.05595C55.0901 6.60323 55.0807 6.21728 55.0625 5.8999H55.6118C55.6118 5.9661 55.7638 6.22851 56.0683 6.68774C56.3929 7.17534 56.5783 7.50632 56.627 7.68008H56.6546C56.6253 7.40348 56.61 7.15466 56.61 6.93538C56.61 6.59909 56.6018 6.25393 56.5842 5.90049H57.0466C57.0296 6.20842 57.0208 6.59377 57.0208 7.05654C57.0202 7.52287 57.029 7.94604 57.046 8.3243Z" fill="#FCFCFC"/>
<defs>
<linearGradient id="paint0_linear_373_5659" x1="11.5196" y1="5.57764" x2="11.5196" y2="25.2163" gradientUnits="userSpaceOnUse">
<stop stop-color="#207AB0"/>
<stop offset="0.3206" stop-color="#4A98B5"/>
<stop offset="0.7782" stop-color="#81C0BB"/>
<stop offset="1" stop-color="#97CFBE"/>
</linearGradient>
<linearGradient id="paint1_linear_373_5659" x1="6.60334" y1="10.4526" x2="19.0771" y2="10.4526" gradientUnits="userSpaceOnUse">
<stop stop-color="#59BBAA"/>
<stop offset="1" stop-color="#E6E89A"/>
</linearGradient>
<linearGradient id="paint2_linear_373_5659" x1="12.8402" y1="15.4012" x2="12.8402" y2="25.2915" gradientUnits="userSpaceOnUse">
<stop stop-color="#E43332"/>
<stop offset="0.1636" stop-color="#D43643"/>
<stop offset="0.7271" stop-color="#A23E7A"/>
<stop offset="1" stop-color="#8E4190"/>
</linearGradient>
<linearGradient id="paint3_linear_373_5659" x1="20.024" y1="12.7633" x2="20.024" y2="18.0378" gradientUnits="userSpaceOnUse">
<stop stop-color="#F08779"/>
<stop offset="0.6326" stop-color="#F8B474"/>
<stop offset="1" stop-color="#FCCA72"/>
</linearGradient>
</defs>
</svg>
