<svg width="113" height="75" viewBox="0 0 113 75" fill="none" xmlns="http://www.w3.org/2000/svg">
<g clip-path="url(#clip0_373_6060)">
<path d="M76.26 0.09H24.67L24.47 0C18.66 0 13.77 4.04 12.43 9.52L0.19 62.56C0.04 63.22 0 63.85 0 64.55C0 69.86 4.26 74.16 9.52 74.16H71.25L75.28 56.38H34.49L34.58 56.4C31.34 56.4 28.7 53.76 28.7 50.5C28.7 49.99 28.79 49.5 28.89 49.04L28.86 49.09L30.84 39.98H79.09L85.63 11.47C85.71 10.88 85.76 10.3 85.76 9.7C85.76 4.4 81.51 0.1 76.26 0.1M58.06 19.1L56.46 25.99H34.11L35.35 20.74C35.73 17.86 38.13 15.64 41.07 15.59H55.19C56.81 15.6 58.1 16.93 58.1 18.57C58.1 18.75 58.1 18.93 58.05 19.1" fill="#C00D0D"/>
<path d="M110.72 10.4498C110.72 15.5398 107.19 19.0498 102.76 19.0498C97.7898 19.0498 94.7298 15.1698 94.7298 10.4498C94.7298 5.37977 98.2298 1.83977 102.76 1.83977C107.29 1.83977 110.72 5.38977 110.72 10.4498ZM112.94 10.4498C112.95 4.17977 108.21 0.00976562 102.76 0.00976562C97.3098 0.00976562 92.5098 4.16976 92.5098 10.4398C92.5098 16.3698 96.7698 20.8598 102.76 20.8598C108.21 20.8598 112.95 16.7098 112.95 10.4398M100.69 9.84977V6.47977H102.99C104.12 6.47977 105.5 6.64977 105.5 8.03977C105.5 9.71977 104.23 9.85977 102.83 9.85977H100.69V9.84977ZM100.69 11.4698H102.5L105.46 16.3998H107.61L104.38 11.3198C106.12 11.1298 107.38 10.2598 107.38 8.17977C107.38 5.81977 105.98 4.85977 103.17 4.85977H98.8098V16.3998H100.69V11.4698Z" fill="#C00D0D"/>
</g>
<defs>
<clipPath id="clip0_373_6060">
<rect width="112.95" height="74.16" fill="white"/>
</clipPath>
</defs>
</svg>
